{"title":"127 Hours (2010) BDRip XviD AC3-pong","uid":15502272,"size":1413062548,"categoryP":"video","categoryS":"movies","magnet":"?xt=urn:btih:bc47952e0f7dfd3f10b7a9549cfedbc488e80ca1&amp;dn=127+Hours+%282010%29+BDRip+XviD+AC3-pong&amp;tr=udp%3A%2F%2Ftracker.leechers-paradise.org%3A6969&amp;tr=udp%3A%2F%2Fzer0day.ch%3A1337&amp;tr=udp%3A%2F%2Fopen.demonii.com%3A1337&amp;tr=udp%3A%2F%2Ftracker.coppersurfer.tk%3A6969&amp;tr=udp%3A%2F%2Fexodus.desync.com%3A6969","seeders":1,"leechers":0,"uploader":"Pongydog","files":1,"time":1470529622,"description":"http://www.imdb.com/title/tt1542344/\r\n\r\nAn adventurous mountain climber becomes trapped under a boulder while canyoneering alone near Moab, Utah and resorts to desperate measures in order to survive. \r\n\r\nDirector: Danny Boyle  \r\n\r\nWriters: Danny Boyle (screenplay),  Simon Beaufoy (screenplay)  | 1 more credit » \r\n\r\nStars: James Franco,  Amber Tamblyn,  Kate Mara  | See full cast &amp; crew » \r\n\r\n\r\n-----------\r\nGeneral\r\nComplete name                            : C:Usersuser1Videos127 Hours (2010) BDRip XviD AC3-pong.avi\r\nFormat                                   : AVI\r\nFormat/Info                              : Audio Video Interleave\r\nFormat profile                           : OpenDML\r\nFile size                                : 1.32 GiB\r\nDuration                                 : 1h 33mn\r\nOverall bit rate                         : 2 011 Kbps\r\nWriting application                      : Lavf57.36.100\r\n\r\nVideo\r\nID                                       : 0\r\nFormat                                   : MPEG-4 Visual\r\nFormat profile                           :   \r\nFormat settings, BVOP                    : No\r\nFormat settings, QPel                    : No\r\nFormat settings, GMC                     : No warppoints\r\nFormat settings, Matrix                  : Default (H.263)\r\nCodec ID                                 : XVID\r\nCodec ID/Hint                            : XviD\r\nDuration                                 : 1h 33mn\r\nBit rate                                 : 1 550 Kbps\r\nWidth                                    : 720 pixels\r\nHeight                                   : 388 pixels\r\nDisplay aspect ratio                     : 1.85:1\r\nOriginal display aspect ratio            : 1.85:1\r\nFrame rate                               : 23.976 fps\r\nColor space                              : YUV\r\nChroma subsampling                       : 4:2:0\r\nBit depth                                : 8 bits\r\nScan type                                : Progressive\r\nCompression mode                         : Lossy\r\nBits/(Pixel*Frame)                       : 0.231\r\nStream size                              : 1.01 GiB (77%)\r\nWriting library                          : XviD 67\r\n\r\nAudio\r\nID                                       : 1\r\nFormat                                   : AC-3\r\nFormat/Info                              : Audio Coding 3\r\nCodec ID                                 : 00001000-0000-0020-8000-00AA00389B71\r\nDuration                                 : 1h 33mn\r\nBit rate                                 : 448 Kbps\r\nChannel(s)                               : 6 channels\r\nChannel positions                        : Front: L C R, Back: L R, LFE\r\nSampling rate                            : 48.0 KHz\r\nBit depth                                : 16 bits\r\nCompression mode                         : Lossy\r\nStream size                              : 300 MiB (22%)\r\nInterleave, duration                     : 32 ms (0.77 video frame)","torrent":{"xt":"urn:btih:bc47952e0f7dfd3f10b7a9549cfedbc488e80ca1","amp;dn":"127+Hours+%282010%29+BDRip+XviD+AC3-pong","amp;tr":["udp%3A%2F%2Ftracker.leechers-paradise.org%3A6969","udp%3A%2F%2Fzer0day.ch%3A1337","udp%3A%2F%2Fopen.demonii.com%3A1337","udp%3A%2F%2Ftracker.coppersurfer.tk%3A6969","udp%3A%2F%2Fexodus.desync.com%3A6969"],"infoHash":"bc47952e0f7dfd3f10b7a9549cfedbc488e80ca1","infoHashBuffer":{"type":"Buffer","data":[188,71,149,46,15,125,253,63,16,183,169,84,156,254,219,196,136,232,12,161]},"announce":[],"urlList":[]}}